# xmcd
#
# Track frame offsets:
#	150
#	12523
#	26085
#	35833
#	49289
#	60887
#	71477
#	87372
#	98470
#	111726
#	130322
#	142750
#	153211
#	169471
#	182233
#	196000
#	207149
#	223002
#	236979
#	250452
#
# Disc length: 3466 seconds
#
# Revision: 1
# Processed by: cddbd v1.5.2PL0 Copyright (c) Steve Scherf et al.
# Submitted via: audiograbber 1.83.01
#
DISCID=250d8814
DTITLE=Original Appenzeller Streichmusik Edelweiss Herisau - Mer sönd halt Appe
DTITLE=zeller
DYEAR=2003
DGENRE=Folklore
TTITLE0=Stets Kameradschaft
TTITLE1=Urnäscher Striichmusigtag
TTITLE2=Giige-Virus
TTITLE3=De Gääsbueb
TTITLE4=E gmüetlechs Höckli uf dr Egg
TTITLE5=Hackbrett-Schottisch von Albert Düsel
TTITLE6=Mer sönd halt Appezeller
TTITLE7=Im Hörnli z'Hondwil
TTITLE8=Uf der Velotour
TTITLE9=Obedrot öberem Alpschtee
TTITLE10=Am Eröffnigsschüüse
TTITLE11=Am Jock Alder sim Geburtstagsfescht
TTITLE12=Frohe Grüsse
TTITLE13=A de Hochalp-Stobete
TTITLE14=Es för de neu Rotschriiber
TTITLE15=Grad wie vor Johre
TTITLE16=Der Schwalben Wiederkehr
TTITLE17=Em Heidi z'lieb
TTITLE18=Om de Gübsesee
TTITLE19=D'Appezeller bim Schelleschötte
EXTD=
EXTT0=
EXTT1=
EXTT2=
EXTT3=
EXTT4=
EXTT5=
EXTT6=
EXTT7=
EXTT8=
EXTT9=
EXTT10=
EXTT11=
EXTT12=
EXTT13=
EXTT14=
EXTT15=
EXTT16=
EXTT17=
EXTT18=
EXTT19=
PLAYORDER=
